<?xml version="1.0" encoding="utf-8"?>
<!-- Generator: Adobe Illustrator 19.1.0, SVG Export Plug-In . SVG Version: 6.00 Build 0)  -->
<svg version="1.1" id="Icons" xmlns="http://www.w3.org/2000/svg" xmlns:xlink="http://www.w3.org/1999/xlink" x="0px" y="0px"
	 width="64px" height="64px" viewBox="0 0 64 64" enable-background="new 0 0 64 64" xml:space="preserve">
<g>
	<linearGradient id="SVGID_1_" gradientUnits="userSpaceOnUse" x1="32.003" y1="8.8496" x2="32.003" y2="54.6899">
		<stop  offset="0" style="stop-color:#A6A6A6"/>
		<stop  offset="1" style="stop-color:#808083"/>
	</linearGradient>
	<path fill="url(#SVGID_1_)" d="M62,53c0,1.1-0.9,2-2,2H4c-1.1,0-2-0.9-2-2V11c0-1.1,0.9-2,2-2h56c1.1,0,2,0.9,2,2V53z"/>
	<g opacity="0.5">
		<path fill="#A6A6A6" d="M59,54c0,0.55-0.45,1-1,1H6c-0.55,0-1-0.45-1-1V15c0-0.55,0.45-1,1-1h52c0.55,0,1,0.45,1,1V54z"/>
	</g>
	<linearGradient id="SVGID_2_" gradientUnits="userSpaceOnUse" x1="18.503" y1="257.7416" x2="18.503" y2="8.0276">
		<stop  offset="0" style="stop-color:#E4DDDB"/>
		<stop  offset="0.3668" style="stop-color:#E6E0DE"/>
		<stop  offset="0.6596" style="stop-color:#EEE9E8"/>
		<stop  offset="0.9262" style="stop-color:#FAF9F9"/>
		<stop  offset="1" style="stop-color:#FFFFFF"/>
	</linearGradient>
	<path fill="url(#SVGID_2_)" d="M32,12H6c-0.55,0-1,0.45-1,1v38c0,0.55,0.45,1,1,1h26"/>
	<linearGradient id="SVGID_3_" gradientUnits="userSpaceOnUse" x1="45.503" y1="67.75" x2="45.503" y2="14.4852">
		<stop  offset="0" style="stop-color:#DDD6D3"/>
		<stop  offset="0.3881" style="stop-color:#E9E4E2"/>
		<stop  offset="1" style="stop-color:#E9E4E2"/>
	</linearGradient>
	<path fill="url(#SVGID_3_)" d="M32,52h26c0.55,0,1-0.45,1-1V13c0-0.55-0.45-1-1-1H32"/>
	<path fill="#C0B1AD" d="M57.16,27H53c-1.05,0-2,0.96-2,2v2c0-1.04,0.95-2,2-2h4c1.05,0,2-0.96,2-2v-2
		C59.01,26.04,58.21,27,57.16,27z"/>
	<path fill="#A69690" d="M57,40h-4c-1.05,0-2,0.96-2,2v2c0-1.04,0.95-2,2-2h4c1.05,0,2-0.96,2-2v-2C59.01,39.04,58.05,40,57,40z"/>
	<path fill="#B9A8A4" d="M59,51V40c0,1.04-0.95,2-2,2h-4c-1.05,0-2,0.96-2,2v8h7C58.55,52,59,51.55,59,51z"/>
	<path fill="#CFC5C1" d="M51,31c0-1.04,0.95-2,2-2h4c1.05,0,2-0.96,2-2v11c0,1.04-0.96,2-2,2h-4c-1.05,0-2,0.96-2,2V31z"/>
	<g>
		<path fill="#529AD6" d="M16.68,16.42h3.06l5.69,17.75h-3.07l-1.39-4.76h-5.6l-1.4,4.76h-3L16.68,16.42z M16.06,27.07h4.23
			l-2.09-7.18L16.06,27.07z"/>
	</g>
</g>
</svg>
