<?xml version="1.0" encoding="utf-8"?>
<!-- Generator: Adobe Illustrator 18.1.0, SVG Export Plug-In . SVG Version: 6.00 Build 0)  -->
<!DOCTYPE svg PUBLIC "-//W3C//DTD SVG 1.1//EN" "http://www.w3.org/Graphics/SVG/1.1/DTD/svg11.dtd">
<svg version="1.1" id="Icons" xmlns="http://www.w3.org/2000/svg" xmlns:xlink="http://www.w3.org/1999/xlink" x="0px" y="0px"
	 width="64px" height="64px" viewBox="0 0 64 64" enable-background="new 0 0 64 64" xml:space="preserve">
<g>
	<linearGradient id="SVGID_1_" gradientUnits="userSpaceOnUse" x1="27.001" y1="60" x2="27.001" y2="4">
		<stop  offset="0" style="stop-color:#DDD6D3"/>
		<stop  offset="0.3881" style="stop-color:#E9E4E2"/>
		<stop  offset="1" style="stop-color:#E9E4E2"/>
	</linearGradient>
	<path fill="url(#SVGID_1_)" d="M50,58c0,1.1-0.9,2-2,2H6c-1.1,0-2-0.9-2-2V6c0-1.1,0.9-2,2-2h42c1.1,0,2,0.9,2,2V58z"/>
	<linearGradient id="SVGID_2_" gradientUnits="userSpaceOnUse" x1="27.001" y1="47" x2="27.001" y2="7.8557">
		<stop  offset="0" style="stop-color:#595959"/>
		<stop  offset="1" style="stop-color:#7A7A7A"/>
	</linearGradient>
	<polygon fill="url(#SVGID_2_)" points="46,47 8,47 8,8 46,8 	"/>
	<rect x="8" y="8" opacity="0.5" fill="#55565A" width="38.1" height="1.5"/>
	<g opacity="0.8">
		<linearGradient id="SVGID_3_" gradientUnits="userSpaceOnUse" x1="27.001" y1="37" x2="27.001" y2="16">
			<stop  offset="0" style="stop-color:#EDEDED"/>
			<stop  offset="1" style="stop-color:#FFFFFF"/>
		</linearGradient>
		<path fill="url(#SVGID_3_)" d="M27,16c-4.4,0-8,3.6-8,8V29c0,4.4,3.6,8,8,8c4.4,0,8-3.6,8-8V24C35,19.6,31.4,16,27,16L27,16z"/>
		<linearGradient id="SVGID_4_" gradientUnits="userSpaceOnUse" x1="27.001" y1="47" x2="27.001" y2="39">
			<stop  offset="0" style="stop-color:#EDEDED"/>
			<stop  offset="1" style="stop-color:#FFFFFF"/>
		</linearGradient>
		<path fill="url(#SVGID_4_)" d="M43,47c0-4-3-8-7-8H19c-4,0-8,4-8,8H43z"/>
	</g>
	<path opacity="0.15" d="M50,22.6L25.4,46.8c0,0-5.2,9-5.4,9.4l0,0c-0.1,0.2-0.1,0.6,0.1,0.8c0.1,0.1,0.3,0.2,0.4,0.2
		c0.1,0,0.2,0,0.3-0.1c0.4-0.2,8.4-4.7,9.6-5.3C31.8,50.4,50,32.6,50,32.6V22.6z"/>
	
		<linearGradient id="SVGID_5_" gradientUnits="userSpaceOnUse" x1="41.5052" y1="51.3531" x2="41.5052" y2="6.9338" gradientTransform="matrix(1 0 0 1 2.0147 1.1177)">
		<stop  offset="0" style="stop-color:#218076"/>
		<stop  offset="1" style="stop-color:#1BADA2"/>
	</linearGradient>
	<path fill="url(#SVGID_5_)" d="M61.8,17.1c0,0-3.8-3.9-3.8-3.8c-0.2-0.2-0.4-0.3-0.6-0.3c-0.2,0-0.4,0.1-0.5,0.2
		c0,0-30.4,30.2-31.8,31.7l5,5c1.5-1.4,31.8-31.7,31.8-31.7C62.1,17.9,62.1,17.4,61.8,17.1z"/>
	<path fill="#B9ADA7" d="M19.6,54.3L19.6,54.3c-0.1,0.3-0.1,0.6,0.1,0.8c0.1,0.1,0.3,0.2,0.4,0.2c0.1,0,0.2,0,0.3-0.1
		c0.4-0.2,8.4-4.7,9.6-5.3l-5-5C24.4,45.9,19.8,53.9,19.6,54.3"/>
	
		<linearGradient id="SVGID_6_" gradientUnits="userSpaceOnUse" x1="15.685" y1="51.6048" x2="28.1694" y2="51.6048" gradientTransform="matrix(1 0 0 1 2.944 1.4738)">
		<stop  offset="0" style="stop-color:#4C4C4C"/>
		<stop  offset="1" style="stop-color:#7A7A7A"/>
	</linearGradient>
	<path fill="url(#SVGID_6_)" d="M19.6,54.3L19.6,54.3c-0.1,0.3-0.1,0.6,0.1,0.8c0.1,0.1,0.3,0.2,0.4,0.2c0.1,0,0.2,0,0.3-0.1
		c0.4-0.2,3.5-1.9,3.5-1.9l-2.4-2.4C21.5,50.9,19.8,53.9,19.6,54.3z"/>
</g>
</svg>
