<?xml version="1.0" encoding="utf-8"?>
<!-- Generator: Adobe Illustrator 19.1.0, SVG Export Plug-In . SVG Version: 6.00 Build 0)  -->
<svg version="1.1" xmlns="http://www.w3.org/2000/svg" xmlns:xlink="http://www.w3.org/1999/xlink" x="0px" y="0px"
	 viewBox="0 0 64 64" enable-background="new 0 0 64 64" xml:space="preserve">
<g id="Guides" display="none">
	<g id="guides" display="inline">
	</g>
</g>
<g id="Test_BG" display="none">
	
		<image overflow="visible" width="3505" height="2158" id="Form" xlink:href="FB1B5FA7.png"  transform="matrix(0.24 0 0 0.24 -30.0097 -40.7754)">
	</image>
	<g id="Foto">
		
			<image display="inline" overflow="visible" width="841" height="505" id="R5P3n2" xlink:href="FB1B5FA5.jpg"  transform="matrix(1 0 0 1 -30.0097 -28)">
		</image>
	</g>
	<rect id="Magenta" x="-29.6" y="-40.8" fill="#E20074" width="840.6" height="517.9"/>
	<rect id="Schwarz_1_" x="-29.6" y="-40.8" display="inline" width="840.6" height="517.9"/>
	<rect id="Dunkelgrau__x28_38_x29__1_" x="-29.6" y="-40.8" fill="#262626" width="840.6" height="517.9"/>
	<rect id="Dunkelgrau__x28_56_x29__1_" x="-29.6" y="-40.8" fill="#383838" width="840.6" height="517.9"/>
	<rect id="Dunkelgrau__x28_75_x29__selten_verwendet_1_" x="-29.6" y="-40.8" fill="#4B4B4B" width="840.6" height="517.9"/>
	<rect id="Hellgrau__x28_237_x29__1_" x="-29.6" y="-40.8" fill="#EDEDED" width="840.6" height="517.9"/>
</g>
<g id="Legend" display="none">
	<g id="HEADLINE" display="inline">
	</g>
</g>
<g id="Asset" display="none">
	<g display="inline">
		<path fill="#A4A4A4" d="M63,1v62H1V1H63 M64,0H0v64h64V0L64,0z"/>
	</g>
</g>
<g id="Icons">
	<path fill="#31C3F7" d="M8,22c0-1,0.4-2,1.2-2.8c1.6-1.6,4.1-1.6,5.7,0L32,36.3l17.2-17.2c1.6-1.6,4.1-1.6,5.7,0
		c1.6,1.6,1.6,4.1,0,5.7l-20,20c-1.6,1.6-4.1,1.6-5.7,0l-20-20C8.4,24,8,23,8,22z"/>
	<g>
		<rect fill="none" width="64" height="64"/>
	</g>
</g>
</svg>
