<?xml version="1.0" encoding="utf-8"?>
<!-- Generator: Adobe Illustrator 18.1.0, SVG Export Plug-In . SVG Version: 6.00 Build 0)  -->
<!DOCTYPE svg PUBLIC "-//W3C//DTD SVG 1.1//EN" "http://www.w3.org/Graphics/SVG/1.1/DTD/svg11.dtd">
<svg version="1.1" id="Icons" xmlns="http://www.w3.org/2000/svg" xmlns:xlink="http://www.w3.org/1999/xlink" x="0px" y="0px"
	 width="64px" height="64px" viewBox="0 0 64 64" enable-background="new 0 0 64 64" xml:space="preserve">
<g>
	<linearGradient id="SVGID_1_" gradientUnits="userSpaceOnUse" x1="45.251" y1="58" x2="45.251" y2="41">
		<stop  offset="0" style="stop-color:#3D92C9"/>
		<stop  offset="1" style="stop-color:#53BAF2"/>
	</linearGradient>
	<path fill="url(#SVGID_1_)" d="M48.4,41H31c-0.8,0-1.5,0.7-1.5,1.5V48H37c5.8,0,10.7,4.3,11.8,10h10.7c0.8,0,1.5-0.7,1.5-1.5v-2.9
		C61,46.6,55.3,41,48.4,41z"/>
	<linearGradient id="SVGID_2_" gradientUnits="userSpaceOnUse" x1="17.751" y1="58" x2="17.751" y2="35">
		<stop  offset="0" style="stop-color:#2C7ABE"/>
		<stop  offset="1" style="stop-color:#5099D5"/>
	</linearGradient>
	<path fill="url(#SVGID_2_)" d="M31,35H16.4C9,35,3,41,3,48.4v8.1C3,57.3,3.7,58,4.5,58h8.7c1.1-5.7,5.9-10,11.8-10h7.5V36.5
		C32.5,35.7,31.8,35,31,35z"/>
	<g>
		<linearGradient id="SVGID_3_" gradientUnits="userSpaceOnUse" x1="20.001" y1="32" x2="20.001" y2="3">
			<stop  offset="0" style="stop-color:#2C7ABE"/>
			<stop  offset="1" style="stop-color:#5099D5"/>
		</linearGradient>
		<path fill="url(#SVGID_3_)" d="M30,22c0,5.5-4.5,10-10,10c-5.5,0-10-4.5-10-10V13c0-5.5,4.5-10,10-10c5.5,0,10,4.5,10,10V22z"/>
	</g>
	<g>
		<linearGradient id="SVGID_4_" gradientUnits="userSpaceOnUse" x1="46.001" y1="38" x2="46.001" y2="13">
			<stop  offset="0" style="stop-color:#3D92C9"/>
			<stop  offset="1" style="stop-color:#53BAF2"/>
		</linearGradient>
		<path fill="url(#SVGID_4_)" d="M55,38H37V22c0-5,4-9,9-9c5,0,9,4,9,9V38z"/>
	</g>
	<g>
		<linearGradient id="SVGID_5_" gradientUnits="userSpaceOnUse" x1="31.001" y1="48" x2="31.001" y2="28">
			<stop  offset="0" style="stop-color:#53BAF2"/>
			<stop  offset="1" style="stop-color:#7ECBF5"/>
		</linearGradient>
		<path fill="url(#SVGID_5_)" d="M38,41.1c0,3.8-3.1,6.9-7,6.9c-3.9,0-7-3.1-7-6.9v-6.3c0-3.8,3.1-6.9,7-6.9c3.9,0,7,3.1,7,6.9V41.1
			z"/>
		<linearGradient id="SVGID_6_" gradientUnits="userSpaceOnUse" x1="31.001" y1="48" x2="31.001" y2="28">
			<stop  offset="0" style="stop-color:#53BAF2"/>
			<stop  offset="1" style="stop-color:#7ECBF5"/>
		</linearGradient>
		<path fill="url(#SVGID_6_)" d="M31,30c2.8,0,5,2.2,5,4.9v6.3c0,2.7-2.2,4.9-5,4.9c-2.8,0-5-2.2-5-4.9v-6.3C26,32.2,28.2,30,31,30
			 M31,28c-3.9,0-7,3.1-7,6.9v6.3c0,3.8,3.1,6.9,7,6.9c3.9,0,7-3.1,7-6.9v-6.3C38,31.1,34.9,28,31,28L31,28z"/>
		<path fill="#FFFFFF" d="M31,28c3.9,0,7,3.1,7,6.9v6.3c0,3.8-3.1,6.9-7,6.9c-3.9,0-7-3.1-7-6.9v-6.3C24,31.1,27.1,28,31,28 M31,26
			c-5,0-9,4-9,8.9v6.3c0,4.9,4,8.9,9,8.9c5,0,9-4,9-8.9v-6.3C40,30,36,26,31,26L31,26z"/>
	</g>
	<linearGradient id="SVGID_7_" gradientUnits="userSpaceOnUse" x1="31.0009" y1="62" x2="31.0009" y2="50">
		<stop  offset="0" style="stop-color:#53BAF2"/>
		<stop  offset="1" style="stop-color:#7ECBF5"/>
	</linearGradient>
	<path fill="url(#SVGID_7_)" d="M47,59.7c0,0,0-0.1,0-0.1c-0.4-5.4-4.8-9.6-10-9.6H25c-5.5,0-10,4.6-10,10.3V61c0,0.6,0.4,1,1,1h30
		c0.6,0,1-0.4,1-1l0-0.3C47,60.3,47,59.8,47,59.7z"/>
</g>
</svg>
