<?xml version="1.0" encoding="utf-8"?>
<!-- Generator: Adobe Illustrator 19.1.0, SVG Export Plug-In . SVG Version: 6.00 Build 0)  -->
<svg version="1.1" id="Icons" xmlns="http://www.w3.org/2000/svg" xmlns:xlink="http://www.w3.org/1999/xlink" x="0px" y="0px"
	 width="64.001px" height="64px" viewBox="0 0 64.001 64" enable-background="new 0 0 64.001 64" xml:space="preserve">
<g>
	<linearGradient id="SVGID_1_" gradientUnits="userSpaceOnUse" x1="32.001" y1="58.0001" x2="32.001" y2="6">
		<stop  offset="0" style="stop-color:#53BAF2"/>
		<stop  offset="1" style="stop-color:#7ECBF5"/>
	</linearGradient>
	<path fill="url(#SVGID_1_)" d="M58.001,8c0-1.1-0.9-2-2-2h-48c-1.1,0-2,0.9-2,2v48c0,1.1,0.9,2,2,2h48c1.1,0,2-0.9,2-2V8z"/>
	<path opacity="0.9" fill="#FFFFFF" d="M32.001,38c4.799,0,9-4.056,9-8.673v-6.683c0-4.616-4.201-8.644-9-8.644
		c-4.799,0-9,4.028-9,8.644v6.683C23.001,33.944,27.201,38,32.001,38z M44.206,41H19.798c-4.333,0-7.797,3.513-7.797,7.846v1.2h40
		v-1.2C52.001,44.513,48.539,41,44.206,41z"/>
</g>
</svg>
