<?xml version="1.0" encoding="utf-8"?>
<!-- Generator: Adobe Illustrator 18.1.0, SVG Export Plug-In . SVG Version: 6.00 Build 0)  -->
<!DOCTYPE svg PUBLIC "-//W3C//DTD SVG 1.1//EN" "http://www.w3.org/Graphics/SVG/1.1/DTD/svg11.dtd">
<svg version="1.1" id="Icons" xmlns="http://www.w3.org/2000/svg" xmlns:xlink="http://www.w3.org/1999/xlink" x="0px" y="0px"
	 width="64px" height="64px" viewBox="0 0 64 64" enable-background="new 0 0 64 64" xml:space="preserve">
<g>
	<linearGradient id="SVGID_1_" gradientUnits="userSpaceOnUse" x1="32.001" y1="55" x2="32.001" y2="9.0025">
		<stop  offset="0" style="stop-color:#DDD6D3"/>
		<stop  offset="0.3881" style="stop-color:#E9E4E2"/>
		<stop  offset="1" style="stop-color:#E9E4E2"/>
	</linearGradient>
	<path fill="url(#SVGID_1_)" d="M62,53c0,1.1-0.9,2-2,2H4c-1.1,0-2-0.9-2-2V11c0-1.1,0.9-2,2-2h56c1.1,0,2,0.9,2,2V53z"/>
	<path fill="#529AD6" d="M17.3,26.9l0.6-0.7l2.5,3.9h2.2l-3.4-5.5l3.2-3.8h-2.2l-2.8,3.5v-3.5h-2v9.3h2V26.9z M29.2,28.4h-4v-2.3
		h3.6v-1.6h-3.6v-2h4v-1.7h-6v9.3h6V28.4z M30.5,30.1h2v-9.3h-2V30.1z M38.9,26.8l-2.9-6h-2v9.3h1.9v-6l2.9,6h2v-9.3h-1.9V26.8z
		 M44.3,26.1h3.6v-1.6h-3.6v-2h4v-1.7h-6v9.3h6v-1.7h-4V26.1z M10.7,32.8l-3,9.3h2.1l0.6-2.1H13l0.6,2.1h2.1l-3-9.3H10.7z
		 M10.8,38.5l0.9-3.2l0.9,3.2H10.8z M21.3,38.8l-2.9-6h-2v9.3h1.9v-6l2.9,6h2v-9.3h-1.9V38.8z M28.5,38.6h1.7c0,0.6-0.2,1-0.4,1.4
		c-0.3,0.5-0.8,0.7-1.3,0.7c-0.6,0-1.1-0.3-1.4-0.8c-0.4-0.6-0.6-1.4-0.6-2.4c0-1,0.2-1.7,0.5-2.3c0.3-0.6,0.8-0.9,1.4-0.9
		c0.5,0,0.9,0.2,1.2,0.7c0.2,0.2,0.3,0.5,0.3,0.9h1.9c0-0.2,0-0.4-0.1-0.5c-0.1-0.6-0.4-1.2-0.8-1.7c-0.7-0.8-1.5-1.2-2.6-1.2
		c-1.2,0-2.2,0.5-2.9,1.5c-0.7,0.9-1,2.1-1,3.4c0,1.4,0.3,2.5,1,3.4c0.7,0.9,1.6,1.4,2.8,1.4c0.6,0,1.2-0.2,1.6-0.6
		c0.2-0.2,0.4-0.4,0.7-0.7v1.1h1.5v-5h-3.5V38.6z M35.6,32.8l-3,9.3h2.1l0.6-2.1h2.7l0.6,2.1h2.1l-3-9.3H35.6z M35.7,38.5l0.9-3.2
		l0.9,3.2H35.7z M46.3,37.1c0.9-0.4,1.3-1.1,1.3-2c0-0.4-0.1-0.8-0.3-1.2c-0.3-0.4-0.6-0.7-1.2-0.9c-0.4-0.1-0.9-0.2-1.5-0.2h-3.3
		v9.3h3.6c0.8,0,1.4-0.2,1.9-0.5c0.8-0.5,1.1-1.3,1.1-2.3C48,38.2,47.4,37.5,46.3,37.1z M43.3,34.4h0.9c0.5,0,0.8,0,1,0.2
		c0.3,0.2,0.5,0.5,0.5,0.9c0,0.4-0.1,0.7-0.4,0.9c-0.2,0.2-0.6,0.2-1.1,0.2h-0.9V34.4z M45.6,40.3c-0.2,0.2-0.6,0.3-1.2,0.3h-1.1V38
		h1c0.5,0,0.9,0.1,1.1,0.2c0.4,0.2,0.6,0.6,0.6,1.1C46,39.7,45.8,40,45.6,40.3z M51.1,40.4v-2.3h3.6v-1.6h-3.6v-2h4v-1.7h-6v9.3h6
		v-1.7H51.1z"/>
</g>
</svg>
