<?xml version="1.0" encoding="utf-8"?>
<!-- Generator: Adobe Illustrator 19.1.0, SVG Export Plug-In . SVG Version: 6.00 Build 0)  -->
<svg version="1.1" id="Icons" xmlns="http://www.w3.org/2000/svg" xmlns:xlink="http://www.w3.org/1999/xlink" x="0px" y="0px"
	 width="64.001px" height="64px" viewBox="0 0 64.001 64" enable-background="new 0 0 64.001 64" xml:space="preserve">
<g>
	<linearGradient id="SVGID_1_" gradientUnits="userSpaceOnUse" x1="32.001" y1="60" x2="32.001" y2="4">
		<stop  offset="0" style="stop-color:#5B8F22"/>
		<stop  offset="1" style="stop-color:#7BA84A"/>
	</linearGradient>
	<path fill="url(#SVGID_1_)" d="M32.001,4c-15.467,0-28,12.535-28,28.002c0,15.465,12.533,27.998,28,27.998
		c15.465,0,28-12.533,28-27.998C60.001,16.535,47.466,4,32.001,4z"/>
	<path opacity="0.9" fill="#FFFFFF" d="M39.128,18.208c-0.737-0.385-1.641-0.096-2.023,0.639c-0.382,0.735-0.096,1.641,0.639,2.023
		c4.166,2.166,6.754,6.423,6.754,11.109c0,6.892-5.606,12.498-12.498,12.498c-6.894,0-12.502-5.606-12.502-12.498
		c0-4.663,2.566-8.907,6.696-11.076c0.733-0.385,1.016-1.292,0.631-2.025c-0.385-0.733-1.291-1.018-2.025-0.631
		c-5.121,2.688-8.302,7.95-8.302,13.732c0,8.546,6.954,15.498,15.502,15.498c8.546,0,15.498-6.952,15.498-15.498
		C47.498,26.17,44.291,20.893,39.128,18.208z M31.985,33.835c0.829,0,1.5-0.672,1.5-1.5V12.809c0-0.828-0.671-1.5-1.5-1.5
		c-0.829,0-1.5,0.672-1.5,1.5v19.526C30.485,33.163,31.156,33.835,31.985,33.835z"/>
</g>
</svg>
