<?xml version="1.0" encoding="utf-8"?>
<!-- Generator: Adobe Illustrator 18.1.0, SVG Export Plug-In . SVG Version: 6.00 Build 0)  -->
<!DOCTYPE svg PUBLIC "-//W3C//DTD SVG 1.1//EN" "http://www.w3.org/Graphics/SVG/1.1/DTD/svg11.dtd">
<svg version="1.1" id="Icons" xmlns="http://www.w3.org/2000/svg" xmlns:xlink="http://www.w3.org/1999/xlink" x="0px" y="0px"
	 width="64px" height="64px" viewBox="0 0 64 64" enable-background="new 0 0 64 64" xml:space="preserve">
<g>
	<linearGradient id="SVGID_1_" gradientUnits="userSpaceOnUse" x1="32.0025" y1="58" x2="32.0025" y2="22">
		<stop  offset="0" style="stop-color:#DDD6D3"/>
		<stop  offset="0.3881" style="stop-color:#E9E4E2"/>
		<stop  offset="1" style="stop-color:#E9E4E2"/>
	</linearGradient>
	<path fill="url(#SVGID_1_)" d="M60,22v34c0,1.1-0.9,2-2,2H6c-1.1,0-2-0.9-2-2V22"/>
	<path fill="#BAE3FA" d="M4,22L30.4,3.2c0.9-0.6,2.4-0.6,3.3,0L60,22"/>
	<g>
		<g>
			<linearGradient id="SVGID_2_" gradientUnits="userSpaceOnUse" x1="32.0015" y1="38.5032" x2="32.0015" y2="-16.0753">
				<stop  offset="0" style="stop-color:#53BAF2"/>
				<stop  offset="1" style="stop-color:#7ECBF5"/>
			</linearGradient>
			<path fill="url(#SVGID_2_)" d="M4,22v1l26.4,18.8c0.9,0.6,2.4,0.6,3.3,0L60,23h0v-1H4z"/>
		</g>
		<g opacity="0.3">
			<path fill="#317CB3" d="M4,22v1l26.4,18.8c0.9,0.6,2.4,0.6,3.3,0L60,23h0v-1H4z"/>
		</g>
	</g>
	<g>
		<linearGradient id="SVGID_3_" gradientUnits="userSpaceOnUse" x1="32.0003" y1="39.558" x2="32.0003" y2="-17.6242">
			<stop  offset="0" style="stop-color:#53BAF2"/>
			<stop  offset="1" style="stop-color:#7ECBF5"/>
		</linearGradient>
		<path fill="url(#SVGID_3_)" d="M4,22l26.3,16.9c0.9,0.6,2.4,0.6,3.4,0L60,22H4z"/>
	</g>
</g>
</svg>
