<?xml version="1.0" encoding="utf-8"?>
<!-- Generator: Adobe Illustrator 18.1.1, SVG Export Plug-In . SVG Version: 6.00 Build 0)  -->
<!DOCTYPE svg PUBLIC "-//W3C//DTD SVG 1.1//EN" "http://www.w3.org/Graphics/SVG/1.1/DTD/svg11.dtd">
<svg version="1.1" id="Icons" xmlns="http://www.w3.org/2000/svg" xmlns:xlink="http://www.w3.org/1999/xlink" x="0px" y="0px"
	 width="64px" height="64px" viewBox="0 0 64 64" enable-background="new 0 0 64 64" xml:space="preserve">
<rect x="0" fill="none" width="64" height="64"/>
<g>
	<linearGradient id="SVGID_1_" gradientUnits="userSpaceOnUse" x1="38.0511" y1="60.9382" x2="38.0511" y2="10.4942">
		<stop  offset="0" style="stop-color:#5AB7E8"/>
		<stop  offset="1" style="stop-color:#7FC9F1"/>
	</linearGradient>
	<path fill="url(#SVGID_1_)" d="M57.7,36.2c0,0-23.1-23.2-23.3-23.4C30.6,9,24.4,9,20.5,12.8c-3.8,3.8-3.8,9.8-0.2,13.7
		c0.1,0.1,0.2,0.3,0.3,0.4l23.2,23.2c0.9,0.9,2.4,0.9,3.3,0l10.6-10.6C58.7,38.6,58.6,37.1,57.7,36.2z"/>
	<g>
		<path fill="#53BAF2" d="M34.2,27.1c0-6.7-5.4-12.1-12.1-12.1c-1.2,0-2.4,0.2-3.5,0.5c-1.2,2.5-1.2,5.3-0.2,7.8c0-0.1,0-0.2,0-0.4
			c0-2.1,1.7-3.7,3.8-3.7c2.1,0,3.8,1.6,3.8,3.7c0,2-1.7,3.7-3.8,3.7c-0.8,0-1.5-0.2-2.1-0.6c0.1,0.1,0.2,0.3,0.3,0.4
			c0.1,0.1,0.2,0.3,0.3,0.4l9.3,9.4C32.6,34,34.2,30.8,34.2,27.1z"/>
	</g>
	<linearGradient id="SVGID_2_" gradientUnits="userSpaceOnUse" x1="22.1032" y1="61.9537" x2="22.1032" y2="12.4507">
		<stop  offset="0" style="stop-color:#A4A4AD"/>
		<stop  offset="1" style="stop-color:#D9D9E1"/>
	</linearGradient>
	<path fill="url(#SVGID_2_)" d="M34.2,24.6c0-6.7-5.4-12.1-12.1-12.1c-6.7,0-12.1,5.4-12.1,12.1c0,4.7,2.7,8.8,6.7,10.8l0,22.4
		l3.7,3.7c0.7,0.7,1.1,0.7,1.8,0l4.5-4.5l-2.6-2.6l2.6-2.6l-2.6-2.6l2.5-2.5l-2.6-2.6l3.4-3.4l0-5.1C31.5,33.4,34.2,29.3,34.2,24.6z
		 M22.1,23.4c-1.8,0-3.4-1.5-3.4-3.3c0-1.9,1.5-3.4,3.4-3.3c1.9,0,3.4,1.5,3.4,3.3C25.5,21.9,24,23.4,22.1,23.4z"/>
	<path fill="#808083" d="M22.1,16.7L22.1,16.7C22.1,16.7,22.1,16.7,22.1,16.7c-3.2,0-5.8-2.6-5.8-5.9c0-3.2,2.6-5.8,5.8-5.8
		c2.9,0,5.3,2.1,5.8,4.9c1,0,2.1,0.2,3.1,0.6c-0.2-4.7-4.1-8.5-8.8-8.5c-4.9,0-8.8,4-8.8,8.8c0,4.9,4,8.8,8.8,8.8
		c1.1,0,2.2-0.2,3.2-0.6C24.9,17.7,23.6,16.7,22.1,16.7z"/>
</g>
</svg>
