<?xml version="1.0" encoding="utf-8"?>
<!-- Generator: Adobe Illustrator 18.1.0, SVG Export Plug-In . SVG Version: 6.00 Build 0)  -->
<!DOCTYPE svg PUBLIC "-//W3C//DTD SVG 1.1//EN" "http://www.w3.org/Graphics/SVG/1.1/DTD/svg11.dtd">
<svg version="1.1" id="Icons" xmlns="http://www.w3.org/2000/svg" xmlns:xlink="http://www.w3.org/1999/xlink" x="0px" y="0px"
	 width="64px" height="64px" viewBox="0 0 64 64" enable-background="new 0 0 64 64" xml:space="preserve">
<g>
	<linearGradient id="SVGID_1_" gradientUnits="userSpaceOnUse" x1="3.975" y1="50.0018" x2="24.001" y2="50.0018">
		<stop  offset="0" style="stop-color:#4C4C4C"/>
		<stop  offset="1" style="stop-color:#7A7A7A"/>
	</linearGradient>
	<path fill="url(#SVGID_1_)" d="M24,45L10,59c-1.4,1.4-3.4,1.3-4.8-0.1l-0.2-0.2C3.7,57.3,3.6,55.4,5,54l14-14L24,45z"/>
	<g opacity="0.3">
		<path fill="#55565A" d="M19,40l-2.4,2.4c1.5,2,3.1,3.4,5.1,4.9L24,45C22,43.5,20.5,42,19,40z"/>
	</g>
	<g>
		<g>
			<path fill="#BAE3FA" d="M37,4C24.3,4,14,14.3,14,27c0,5,1.6,9.7,4.3,13.4c1.5,2,3.2,3.8,5.3,5.2C27.4,48.4,32,50,37,50
				c12.7,0,23-10.3,23-23C60,14.3,49.7,4,37,4z"/>
			<linearGradient id="SVGID_2_" gradientUnits="userSpaceOnUse" x1="37.001" y1="50" x2="37.001" y2="4">
				<stop  offset="0" style="stop-color:#A6A6AE"/>
				<stop  offset="1" style="stop-color:#DADAE2"/>
			</linearGradient>
			<path fill="url(#SVGID_2_)" d="M37,8c10.5,0,19,8.5,19,19c0,10.5-8.5,19-19,19c-4,0-7.8-1.2-11.1-3.6c-1.7-1.2-3.1-2.7-4.3-4.3
				C19.2,34.8,18,31,18,27C18,16.5,26.5,8,37,8 M37,4C24.3,4,14,14.3,14,27c0,5,1.6,9.7,4.3,13.4c1.5,2,3.2,3.8,5.3,5.2
				C27.4,48.4,32,50,37,50c12.7,0,23-10.3,23-23C60,14.3,49.7,4,37,4L37,4z"/>
		</g>
		<g opacity="0.7">
			<path fill="#53BAF2" d="M37,9.6c10.2,0,18.5,8.1,19,18.2c0-0.3,0-0.5,0-0.8c0-10.5-8.5-19-19-19c-10.5,0-19,8.5-19,19
				c0,0.3,0,0.5,0,0.8C18.5,17.7,26.8,9.6,37,9.6z"/>
		</g>
	</g>
</g>
</svg>
