<?xml version="1.0" encoding="utf-8"?>
<!-- Generator: Adobe Illustrator 18.1.0, SVG Export Plug-In . SVG Version: 6.00 Build 0)  -->
<!DOCTYPE svg PUBLIC "-//W3C//DTD SVG 1.1//EN" "http://www.w3.org/Graphics/SVG/1.1/DTD/svg11.dtd">
<svg version="1.1" id="Icons" xmlns="http://www.w3.org/2000/svg" xmlns:xlink="http://www.w3.org/1999/xlink" x="0px" y="0px"
	 width="64px" height="64px" viewBox="0 0 64 64" enable-background="new 0 0 64 64" xml:space="preserve">
<path fill="#FFFFFF" d="M32,4C32,4,31.9,4,32,4C16.4,4.1,4,16.6,4,32.1C4.1,47.5,16.6,60,32,60c0,0,0.1,0,0.1,0
	c15.5-0.1,28-12.6,27.9-28.1C60,16.5,47.4,4,32,4L32,4z"/>
<linearGradient id="SVGID_1_" gradientUnits="userSpaceOnUse" x1="32.0029" y1="60.0008" x2="32.0029" y2="3.9988">
	<stop  offset="0" style="stop-color:#A6A6AE"/>
	<stop  offset="1" style="stop-color:#B8B8BE"/>
</linearGradient>
<path fill="url(#SVGID_1_)" d="M32,7.1c13.7,0,24.9,11.2,24.9,24.9c0,13.8-11.1,25-24.9,25H32c-13.7,0-24.9-11.2-24.9-24.9
	C7,18.3,18.2,7.1,32,7.1L32,7.1L32,7.1 M32,4C32,4,31.9,4,32,4C16.4,4.1,4,16.6,4,32.1C4.1,47.5,16.6,60,32,60c0,0,0.1,0,0.1,0
	c15.5-0.1,28-12.6,27.9-28.1C60,16.5,47.4,4,32,4L32,4z"/>
<path fill="#53BAF2" d="M37,32c0,0.2,0,0.4,0,0.7L50.3,46c3-3.9,4.7-8.7,4.7-14c0-6.4-2.6-12.1-6.7-16.3S38.4,9,32,9v18
	C34.8,27,37,29.2,37,32z"/>
<linearGradient id="SVGID_2_" gradientUnits="userSpaceOnUse" x1="38.8066" y1="50.0556" x2="38.8066" y2="28.9901">
	<stop  offset="0" style="stop-color:#4C4C4C"/>
	<stop  offset="1" style="stop-color:#7A7A7A"/>
</linearGradient>
<path fill="url(#SVGID_2_)" d="M48.7,47.2L34.8,33.3c0.2-0.4,0.3-0.8,0.3-1.3c0-1.7-1.4-3.1-3.1-3.1c-1.7,0-3.1,1.4-3.1,3.1
	c0,1.7,1.4,3.1,3.1,3.1c0.5,0,0.9-0.1,1.4-0.3l13.9,13.9L48.7,47.2z"/>
</svg>
