<?xml version="1.0" encoding="utf-8"?>
<!-- Generator: Adobe Illustrator 18.1.0, SVG Export Plug-In . SVG Version: 6.00 Build 0)  -->
<!DOCTYPE svg PUBLIC "-//W3C//DTD SVG 1.1//EN" "http://www.w3.org/Graphics/SVG/1.1/DTD/svg11.dtd">
<svg version="1.1" id="Icons" xmlns="http://www.w3.org/2000/svg" xmlns:xlink="http://www.w3.org/1999/xlink" x="0px" y="0px"
	 width="64px" height="64px" viewBox="0 0 64 64" enable-background="new 0 0 64 64" xml:space="preserve">
<linearGradient id="SVGID_1_" gradientUnits="userSpaceOnUse" x1="32.0059" y1="55" x2="32.0059" y2="16">
	<stop  offset="0" style="stop-color:#DDD6D3"/>
	<stop  offset="0.3881" style="stop-color:#E9E4E2"/>
	<stop  offset="1" style="stop-color:#E9E4E2"/>
</linearGradient>
<path fill="url(#SVGID_1_)" d="M60,16v37c0,1.1-0.9,2-2,2H6c-1.1,0-2-0.9-2-2V16"/>
<path opacity="0.7" fill="#948983" d="M30.4,36.8c0.9,0.7,2.4,0.7,3.3,0L60,17.4V16H4v1.4L30.4,36.8z"/>
<linearGradient id="SVGID_2_" gradientUnits="userSpaceOnUse" x1="31.9766" y1="162.7417" x2="31.9766" y2="-49.3011">
	<stop  offset="0" style="stop-color:#E4DDDB"/>
	<stop  offset="1" style="stop-color:#E9E4E2"/>
</linearGradient>
<path fill="url(#SVGID_2_)" d="M32,35.2c-0.2,0-0.4-0.1-0.4-0.1L5.1,16h53.7L32.4,35.1C32.4,35.2,32.2,35.2,32,35.2z"/>
<g opacity="0.5">
	<path fill="#B9ADA7" d="M33.6,36.8c-0.5,0.3-1,0.5-1.6,0.5c-0.6,0-1.2-0.2-1.6-0.5L4,17.4v0.1l26.4,21.6c0.5,0.3,1,0.5,1.6,0.5
		c0.6,0,1.2-0.2,1.6-0.5L60,17.5v-0.1L33.6,36.8z"/>
</g>
</svg>
